<svg xmlns="http://www.w3.org/2000/svg" width="32" height="32" viewBox="0 0 32 32" fill="none"><path d="M9 2C7.34 2 6 3.34 6 5V7H25V5c0-1.66-1.34-3-3-3H9Z" fill="#7167a4"/><path d="M9 30c-1.66 0-3-1.34-3-3V25H25v2c0 1.66-1.34 3-3 3H9Z" fill="#7167a4"/><path d="M6 6H25V26H6V6Z" fill="#321b41"/><path d="M13.5 10c0-.55.45-1 1-1h2c.55 0 1 .45 1 1v2c0 .55-.45 1-1 1h-2c-.55 0-1-.45-1-1V10Zm-5 5c0-.55.45-1 1-1h2c.55 0 1 .45 1 1v2c0 .55-.45 1-1 1h-2c-.55 0-1-.45-1-1V15Zm6 4c-.55 0-1 .45-1 1v2c0 .55.45 1 1 1h2c.55 0 1-.45 1-1V20c0-.55-.45-1-1-1h-2Z" fill="#00a6ed"/><path d="M8.5 10c0-.55.45-1 1-1h2c.55 0 1 .45 1 1v2c0 .55-.45 1-1 1h-2c-.55 0-1-.45-1-1V10Zm0 10c0-.55.45-1 1-1h2c.55 0 1 .45 1 1v2c0 .55-.45 1-1 1h-2c-.55 0-1-.45-1-1V20Zm11-6c-.55 0-1 .45-1 1v2c0 .55.45 1 1 1h2c.55 0 1-.45 1-1V15c0-.55-.45-1-1-1h-2Z" fill="#ff822d"/><path d="M18.5 10c0-.55.45-1 1-1h2c.55 0 1 .45 1 1v2c0 .55-.45 1-1 1h-2c-.55 0-1-.45-1-1V10Zm-5 5c0-.55.45-1 1-1h2c.55 0 1 .45 1 1v2c0 .55-.45 1-1 1h-2c-.55 0-1-.45-1-1V15Zm6 4c-.55 0-1 .45-1 1v2c0 .55.45 1 1 1h2c.55 0 1-.45 1-1V20c0-.55-.45-1-1-1h-2Z" fill="#fcd53f"/></svg>