<svg xmlns="http://www.w3.org/2000/svg" width="32" height="32" viewBox="0 0 32 32" fill="none"><path d="M8 20H6V30H8V20Zm18 0H24V30h2V20Z" fill="#d3d3d3"/><path d="M3 12 7 8h5.52L14.5 9l2.96-1h5.06L24 9l3.48-1H28c.55 0 1 .45 1 1v2.52l-.5 2.98.5 1.98V20c0 .55-.45 1-1 1H24.48L22 20.5l-2.48.5H14.48L12.5 20 9.52 21H4.49L4 18.5l-1-.97V12Z" fill="#fcd53f"/><path d="M7.47 8H4c-.55 0-1 .45-1 1v3.47L7.47 8Zm-3 13H4c-.55 0-1-.45-1-1V17.52L12.53 8h4.94l-13 13Zm10 0H9.53l13-13h4.94l-13 13Zm10 0H19.52L29 11.53v4.94L24.47 21Z" fill="#533566"/><path d="M7.5 6C6.67 6 6 6.67 6 7.5V8H9V7.5C9 6.67 8.33 6 7.5 6Zm17 0c-.83 0-1.5.67-1.5 1.5V8h3V7.5c0-.83-.67-1.5-1.5-1.5Z" fill="#f8312f"/></svg>