<svg xmlns="http://www.w3.org/2000/svg" width="32" height="32" viewBox="0 0 32 32" fill="none"><path d="M8 5c-.55 0-1 .45-1 1 0 .55-.03 1.46.52 1.46L8.9 7H12c.55 0 1-.45 1-1 0-.55-.45-1-1-1H8Zm2 21c0 2.21-1.79 4-4 4-2.21 0-4-1.79-4-4 0-2.21 1.79-4 4-4 2.21 0 4 1.79 4 4ZM8 26c0-1.1-.9-2-2-2-1.1 0-2 .9-2 2 0 1.1.9 2 2 2 1.1 0 2-.9 2-2Zm22 0c0 2.21-1.79 4-4 4-2.21 0-4-1.79-4-4 0-2.21 1.79-4 4-4 2.21 0 4 1.79 4 4Zm-2 0c0-1.1-.9-2-2-2-1.1 0-2 .9-2 2 0 1.1.9 2 2 2 1.1 0 2-.9 2-2Z" fill="#1c1c1c"/><path d="M7 5.94C7 5.96 7 5.98 7 6c0 .55.45 1 1 1h.9l-.99 9.98 5.66 6.92c.57.7 1.43 1.1 2.32 1.1H26c.55 0 1 .45 1 1 0 .55-.45 1-1 1H15.89c-1.49 0-2.91-.67-3.86-1.83L7.63 19.8 7 26.1c-.06.55-.55.95-1.1.9-.55-.06-.95-.55-.9-1.1L7 5.94Z" fill="#26c9fc"/></svg>